<svg width="32" height="32" viewBox="0 0 32 32" fill="none" xmlns="http://www.w3.org/2000/svg">
<path opacity="0.5" fill-rule="evenodd" clip-rule="evenodd" d="M5.33325 16C5.33325 10.12 10.1199 5.33334 15.9999 5.33334C21.8799 5.33334 26.6666 10.12 26.6666 16C26.6666 21.88 21.8799 26.6667 15.9999 26.6667C10.1199 26.6667 5.33325 21.88 5.33325 16ZM9.33325 17.3333H22.6666V14.6667H9.33325V17.3333Z" fill="#FA0000"/>
<path d="M9.33325 14.6667H22.6666V17.3333H9.33325V14.6667Z" fill="black"/>
<path fill-rule="evenodd" clip-rule="evenodd" d="M2.66675 16C2.66675 8.64 8.64008 2.66666 16.0001 2.66666C23.3601 2.66666 29.3334 8.64 29.3334 16C29.3334 23.36 23.3601 29.3333 16.0001 29.3333C8.64008 29.3333 2.66675 23.36 2.66675 16ZM5.33341 16C5.33341 21.88 10.1201 26.6667 16.0001 26.6667C21.8801 26.6667 26.6667 21.88 26.6667 16C26.6667 10.12 21.8801 5.33333 16.0001 5.33333C10.1201 5.33333 5.33341 10.12 5.33341 16Z" fill="black"/>
</svg>
