<svg width="30" height="30" viewBox="0 0 30 30" fill="none" xmlns="http://www.w3.org/2000/svg">
<path opacity="0.5" d="M14.9002 10.35C15.2002 8.6 14.7002 6.7375 13.3502 5.4C12.1752 4.2125 10.6002 3.6625 9.05022 3.75L12.9127 7.6125L7.61272 12.9125L3.75022 9.05C3.66272 10.6 4.21272 12.1625 5.38772 13.35C6.68772 14.65 8.47522 15.1625 10.1752 14.9125C11.0627 14.7875 11.9252 14.4375 12.6752 13.8875L24.5002 25.7125L25.6002 24.6125L13.7877 12.8C14.3752 12.05 14.7502 11.225 14.9002 10.35Z" fill="#4C3099"/>
<path fill-rule="evenodd" clip-rule="evenodd" d="M16.9251 12.375L28.2626 23.7125C28.7626 24.2 28.7626 25 28.2626 25.475L25.3876 28.35C24.9001 28.8375 24.1126 28.8375 23.6251 28.35L12.2376 16.9625C9.33764 18.05 5.95013 17.4375 3.62513 15.1125C0.750135 12.2375 0.487635 7.76251 2.81263 4.58751L7.60013 9.37501L9.37513 7.60001L4.58764 2.81251C7.77514 0.487513 12.2501 0.750013 15.1251 3.62501C17.4876 6.00001 18.0876 9.45001 16.9251 12.375ZM12.6876 13.8875L24.5126 25.7125L25.6126 24.5875L13.8001 12.775C14.3751 12.0375 14.7501 11.2125 14.9001 10.3375C15.2126 8.60001 14.7001 6.73751 13.3501 5.38751C12.1626 4.21251 10.6001 3.66251 9.05013 3.75001L12.9126 7.61251L7.61264 12.9125L3.75014 9.05001C3.66264 10.6 4.21264 12.175 5.40014 13.35C6.70014 14.65 8.48764 15.1625 10.1876 14.9125C11.0751 14.7875 11.9251 14.45 12.6876 13.8875Z" fill="white"/>
</svg>
